<mxfile host="app.diagrams.net" modified="2023-04-28T10:32:01.383Z" agent="Mozilla/5.0 (Windows NT 10.0; Win64; x64) AppleWebKit/537.36 (KHTML, like Gecko) Chrome/112.0.0.0 Safari/537.36 Edg/112.0.1722.58" etag="4aT01Hw8I7CrQiY13F7h" version="21.2.2" type="device">
  <diagram name="Страница 1" id="ZbWanSN75khDaNtl-cxv">
    <mxGraphModel dx="1290" dy="549" grid="1" gridSize="10" guides="1" tooltips="1" connect="1" arrows="1" fold="1" page="1" pageScale="1" pageWidth="827" pageHeight="1169" math="0" shadow="0">
      <root>
        <mxCell id="0" />
        <mxCell id="1" parent="0" />
        <mxCell id="Q9DhRysVw7u3lnrwDsP4-1" value="«Component»&lt;br&gt;&lt;b&gt;User&lt;/b&gt;" style="html=1;dropTarget=0;" parent="1" vertex="1">
          <mxGeometry x="90" y="100" width="180" height="90" as="geometry" />
        </mxCell>
        <mxCell id="Q9DhRysVw7u3lnrwDsP4-2" value="" style="shape=module;jettyWidth=8;jettyHeight=4;" parent="Q9DhRysVw7u3lnrwDsP4-1" vertex="1">
          <mxGeometry x="1" width="20" height="20" relative="1" as="geometry">
            <mxPoint x="-27" y="7" as="offset" />
          </mxGeometry>
        </mxCell>
        <mxCell id="Q9DhRysVw7u3lnrwDsP4-5" value="«Component»&lt;br&gt;&lt;b&gt;Список столов&lt;/b&gt;" style="html=1;dropTarget=0;" parent="1" vertex="1">
          <mxGeometry x="323" y="290" width="180" height="90" as="geometry" />
        </mxCell>
        <mxCell id="Q9DhRysVw7u3lnrwDsP4-6" value="" style="shape=module;jettyWidth=8;jettyHeight=4;" parent="Q9DhRysVw7u3lnrwDsP4-5" vertex="1">
          <mxGeometry x="1" width="20" height="20" relative="1" as="geometry">
            <mxPoint x="-27" y="7" as="offset" />
          </mxGeometry>
        </mxCell>
        <mxCell id="Q9DhRysVw7u3lnrwDsP4-7" value="«Component»&lt;br&gt;&lt;b&gt;Стол&lt;/b&gt;" style="html=1;dropTarget=0;" parent="1" vertex="1">
          <mxGeometry x="90" y="440" width="180" height="90" as="geometry" />
        </mxCell>
        <mxCell id="Q9DhRysVw7u3lnrwDsP4-8" value="" style="shape=module;jettyWidth=8;jettyHeight=4;" parent="Q9DhRysVw7u3lnrwDsP4-7" vertex="1">
          <mxGeometry x="1" width="20" height="20" relative="1" as="geometry">
            <mxPoint x="-27" y="7" as="offset" />
          </mxGeometry>
        </mxCell>
        <mxCell id="Q9DhRysVw7u3lnrwDsP4-9" value="«Component»&lt;br&gt;&lt;b&gt;Админ&lt;/b&gt;" style="html=1;dropTarget=0;" parent="1" vertex="1">
          <mxGeometry x="560" y="440" width="180" height="90" as="geometry" />
        </mxCell>
        <mxCell id="Q9DhRysVw7u3lnrwDsP4-10" value="" style="shape=module;jettyWidth=8;jettyHeight=4;" parent="Q9DhRysVw7u3lnrwDsP4-9" vertex="1">
          <mxGeometry x="1" width="20" height="20" relative="1" as="geometry">
            <mxPoint x="-27" y="7" as="offset" />
          </mxGeometry>
        </mxCell>
        <mxCell id="Q9DhRysVw7u3lnrwDsP4-11" value="" style="rounded=0;orthogonalLoop=1;jettySize=auto;html=1;endArrow=none;endFill=0;sketch=0;targetPerimeterSpacing=0;startArrow=none;" parent="1" source="Q9DhRysVw7u3lnrwDsP4-13" edge="1">
          <mxGeometry relative="1" as="geometry">
            <mxPoint x="270" y="490" as="sourcePoint" />
            <mxPoint x="270" y="331.14288330078125" as="targetPoint" />
            <Array as="points" />
          </mxGeometry>
        </mxCell>
        <mxCell id="Q9DhRysVw7u3lnrwDsP4-12" value="" style="rounded=0;orthogonalLoop=1;jettySize=auto;html=1;endArrow=halfCircle;endFill=0;endSize=6;strokeWidth=1;sketch=0;exitX=0;exitY=0.5;exitDx=0;exitDy=0;" parent="1" source="Q9DhRysVw7u3lnrwDsP4-5" target="Q9DhRysVw7u3lnrwDsP4-13" edge="1">
          <mxGeometry relative="1" as="geometry">
            <mxPoint x="490" y="215" as="sourcePoint" />
            <mxPoint x="470" y="215" as="targetPoint" />
            <Array as="points" />
          </mxGeometry>
        </mxCell>
        <mxCell id="Q9DhRysVw7u3lnrwDsP4-14" value="" style="rounded=0;orthogonalLoop=1;jettySize=auto;html=1;endArrow=none;endFill=0;sketch=0;sourcePerimeterSpacing=0;" parent="1" target="Q9DhRysVw7u3lnrwDsP4-13" edge="1">
          <mxGeometry relative="1" as="geometry">
            <mxPoint x="270" y="490" as="sourcePoint" />
            <mxPoint x="270" y="331.14288330078125" as="targetPoint" />
            <Array as="points">
              <mxPoint x="290" y="490" />
              <mxPoint x="290" y="420" />
              <mxPoint x="250" y="420" />
              <mxPoint x="250" y="335" />
            </Array>
          </mxGeometry>
        </mxCell>
        <mxCell id="Q9DhRysVw7u3lnrwDsP4-13" value="" style="ellipse;whiteSpace=wrap;html=1;align=center;aspect=fixed;resizable=0;points=[];outlineConnect=0;sketch=0;" parent="1" vertex="1">
          <mxGeometry x="260" y="330" width="10" height="10" as="geometry" />
        </mxCell>
        <mxCell id="Q9DhRysVw7u3lnrwDsP4-15" value="" style="rounded=0;orthogonalLoop=1;jettySize=auto;html=1;endArrow=none;endFill=0;sketch=0;sourcePerimeterSpacing=0;targetPerimeterSpacing=0;exitX=1;exitY=0.5;exitDx=0;exitDy=0;" parent="1" source="Q9DhRysVw7u3lnrwDsP4-5" target="Q9DhRysVw7u3lnrwDsP4-17" edge="1">
          <mxGeometry relative="1" as="geometry">
            <mxPoint x="460" y="355" as="sourcePoint" />
          </mxGeometry>
        </mxCell>
        <mxCell id="Q9DhRysVw7u3lnrwDsP4-16" value="" style="rounded=0;orthogonalLoop=1;jettySize=auto;html=1;endArrow=halfCircle;endFill=0;endSize=6;strokeWidth=1;sketch=0;exitX=0;exitY=0.5;exitDx=0;exitDy=0;" parent="1" source="Q9DhRysVw7u3lnrwDsP4-9" target="Q9DhRysVw7u3lnrwDsP4-17" edge="1">
          <mxGeometry relative="1" as="geometry">
            <mxPoint x="500" y="355" as="sourcePoint" />
            <mxPoint x="540" y="360" as="targetPoint" />
            <Array as="points">
              <mxPoint x="540" y="485" />
              <mxPoint x="540" y="335" />
            </Array>
          </mxGeometry>
        </mxCell>
        <mxCell id="Q9DhRysVw7u3lnrwDsP4-17" value="" style="ellipse;whiteSpace=wrap;html=1;align=center;aspect=fixed;resizable=0;points=[];outlineConnect=0;sketch=0;" parent="1" vertex="1">
          <mxGeometry x="520" y="330" width="10" height="10" as="geometry" />
        </mxCell>
        <mxCell id="Q9DhRysVw7u3lnrwDsP4-18" value="" style="rounded=0;orthogonalLoop=1;jettySize=auto;html=1;endArrow=none;endFill=0;sketch=0;sourcePerimeterSpacing=0;targetPerimeterSpacing=0;exitX=1;exitY=0.5;exitDx=0;exitDy=0;" parent="1" source="Q9DhRysVw7u3lnrwDsP4-1" target="Q9DhRysVw7u3lnrwDsP4-20" edge="1">
          <mxGeometry relative="1" as="geometry">
            <mxPoint x="410" y="130" as="sourcePoint" />
            <Array as="points">
              <mxPoint x="410" y="145" />
            </Array>
          </mxGeometry>
        </mxCell>
        <mxCell id="Q9DhRysVw7u3lnrwDsP4-19" value="" style="rounded=0;orthogonalLoop=1;jettySize=auto;html=1;endArrow=halfCircle;endFill=0;entryX=0.5;entryY=0.5;endSize=6;strokeWidth=1;sketch=0;" parent="1" target="Q9DhRysVw7u3lnrwDsP4-20" edge="1">
          <mxGeometry relative="1" as="geometry">
            <mxPoint x="410" y="290" as="sourcePoint" />
          </mxGeometry>
        </mxCell>
        <mxCell id="Q9DhRysVw7u3lnrwDsP4-20" value="" style="ellipse;whiteSpace=wrap;html=1;align=center;aspect=fixed;resizable=0;points=[];outlineConnect=0;sketch=0;" parent="1" vertex="1">
          <mxGeometry x="404" y="250.00000000000003" width="10" height="10" as="geometry" />
        </mxCell>
      </root>
    </mxGraphModel>
  </diagram>
</mxfile>
